<svg id="Capa_1" enable-background="new 0 0 511.999 511.999" height="512" viewBox="0 0 511.999 511.999" width="512" xmlns="http://www.w3.org/2000/svg"><path d="m445.258 186.01c2.956-15.54-8.602-29.816-23.758-29.816-15.155 0-26.711 14.273-23.759 29.816z" fill="#43cb8e"/><path d="m296.424 186.01c2.952-15.543-8.604-29.816-23.759-29.816s-26.711 14.273-23.759 29.816z" fill="#43cb8e"/><path d="m370.842 186.01c2.952-15.543-8.604-29.816-23.759-29.816s-26.711 14.273-23.759 29.816z" fill="#43cb8e"/><path d="m432.664 159.01c-3.327-1.79-7.115-2.816-11.163-2.816-15.155 0-26.711 14.273-23.759 29.816h22.327c-2.164-11.391 3.469-22.091 12.595-27z" fill="#00ba66"/><path d="m283.829 159.009c-3.327-1.79-7.115-2.816-11.164-2.816-15.155 0-26.711 14.273-23.759 29.816h22.327c-2.163-11.39 3.47-22.091 12.596-27z" fill="#00ba66"/><path d="m358.247 159.01c-3.327-1.79-7.115-2.816-11.163-2.816-15.155 0-26.711 14.273-23.759 29.816h22.327c-2.164-11.391 3.469-22.091 12.595-27z" fill="#00ba66"/><path d="m220.21 208.844h237.88v295.544h-237.88z" fill="#b1dbfc"/><path d="m220.21 208.844h28.352v295.544h-28.352z" fill="#8bcaff"/><path d="m464.447 185.075h-244.237v26.41h244.236c2.47 0 4.474-2.003 4.474-4.474v-17.463c0-2.47-2.003-4.473-4.473-4.473z" fill="#dfebfa"/><path d="m220.21 185.075h28.352v26.41h-28.352z" fill="#b1dbfc"/><path d="m53.143 101.775h170.111v402.613h-170.111z" fill="#60b8fe"/><path d="m53.143 101.775h28.352v402.613h-28.352z" fill="#23a8fe"/><path d="m178.974 0h-20.574c-1.924 0-3.484 1.56-3.484 3.484v19.386c0 1.924-1.56 3.484-3.484 3.484-3.14 0-23.326 0-26.466 0-1.924 0-3.484-1.56-3.484-3.484v-19.386c0-1.924-1.56-3.484-3.484-3.484h-20.574c-1.924 0-3.484 1.56-3.484 3.484v74.299c0 1.924 1.56 3.484 3.484 3.484h20.574c1.924 0 3.484-1.56 3.484-3.484v-20.401c0-1.924 1.56-3.484 3.484-3.484h26.466c1.924 0 3.484 1.56 3.484 3.484v20.401c0 1.924 1.56 3.484 3.484 3.484h20.574c1.924 0 3.484-1.56 3.484-3.484 0-8.249 0-66.045 0-74.299 0-1.924-1.559-3.484-3.484-3.484z" fill="#fee55a"/><path d="m138.199 26.355c-5.831 0-11.663 0-13.233 0-1.924 0-3.484-1.56-3.484-3.484v-19.387c0-1.924-1.56-3.484-3.484-3.484h-20.574c-1.924 0-3.484 1.56-3.484 3.484v74.299c0 1.924 1.56 3.484 3.484 3.484h20.574c1.924 0 3.484-1.56 3.484-3.484v-20.401c0-1.924 1.56-3.484 3.484-3.484h13.233c0-8.795 0-18.749 0-27.543z" fill="#ffd301"/><path d="m229.249 80.253h-182.1c-2.471 0-4.473 2.003-4.473 4.474v17.463c0 2.471 2.003 4.474 4.473 4.474h182.1c2.47 0 4.473-2.003 4.473-4.474v-17.464c.001-2.47-2.003-4.473-4.473-4.473z" fill="#dfebfa"/><path d="m76.166 102.189v-17.463c0-2.471 2.002-4.474 4.473-4.474h-33.49c-2.471 0-4.473 2.003-4.473 4.474v17.463c0 2.471 2.002 4.474 4.473 4.474h33.491c-2.471 0-4.474-2.003-4.474-4.474z" fill="#b1dbfc"/><g fill="#0193fa"><path d="m138.199 163.805c-4.204 0-7.612-3.408-7.612-7.612v-20.906c0-4.204 3.408-7.612 7.612-7.612s7.612 3.408 7.612 7.612v20.906c0 4.204-3.408 7.612-7.612 7.612z"/><path d="m166.551 163.805c-4.204 0-7.612-3.408-7.612-7.612v-20.906c0-4.204 3.408-7.612 7.612-7.612s7.612 3.408 7.612 7.612v20.906c-.001 4.204-3.408 7.612-7.612 7.612z"/><path d="m194.903 163.805c-4.204 0-7.612-3.408-7.612-7.612v-20.906c0-4.204 3.408-7.612 7.612-7.612s7.612 3.408 7.612 7.612v20.906c0 4.204-3.408 7.612-7.612 7.612z"/><path d="m138.199 218.481c-4.204 0-7.612-3.407-7.612-7.612v-20.906c0-4.204 3.408-7.612 7.612-7.612s7.612 3.407 7.612 7.612v20.906c0 4.204-3.408 7.612-7.612 7.612z"/><path d="m166.551 218.481c-4.204 0-7.612-3.407-7.612-7.612v-20.906c0-4.204 3.408-7.612 7.612-7.612s7.612 3.407 7.612 7.612v20.906c-.001 4.204-3.408 7.612-7.612 7.612z"/><path d="m194.903 218.481c-4.204 0-7.612-3.407-7.612-7.612v-20.906c0-4.204 3.408-7.612 7.612-7.612s7.612 3.407 7.612 7.612v20.906c0 4.204-3.408 7.612-7.612 7.612z"/><path d="m138.199 273.156c-4.204 0-7.612-3.407-7.612-7.612v-20.906c0-4.204 3.408-7.612 7.612-7.612s7.612 3.407 7.612 7.612v20.906c0 4.205-3.408 7.612-7.612 7.612z"/><path d="m166.551 273.156c-4.204 0-7.612-3.407-7.612-7.612v-20.906c0-4.204 3.408-7.612 7.612-7.612s7.612 3.407 7.612 7.612v20.906c-.001 4.205-3.408 7.612-7.612 7.612z"/><path d="m194.903 273.156c-4.204 0-7.612-3.407-7.612-7.612v-20.906c0-4.204 3.408-7.612 7.612-7.612s7.612 3.407 7.612 7.612v20.906c0 4.205-3.408 7.612-7.612 7.612z"/><path d="m138.199 327.831c-4.204 0-7.612-3.407-7.612-7.612v-20.905c0-4.204 3.408-7.612 7.612-7.612s7.612 3.407 7.612 7.612v20.905c0 4.205-3.408 7.612-7.612 7.612z"/><path d="m166.551 327.831c-4.204 0-7.612-3.407-7.612-7.612v-20.905c0-4.204 3.408-7.612 7.612-7.612s7.612 3.407 7.612 7.612v20.905c-.001 4.205-3.408 7.612-7.612 7.612z"/><path d="m194.903 327.831c-4.204 0-7.612-3.407-7.612-7.612v-20.905c0-4.204 3.408-7.612 7.612-7.612s7.612 3.407 7.612 7.612v20.905c0 4.205-3.408 7.612-7.612 7.612z"/><path d="m138.199 382.508c-4.204 0-7.612-3.407-7.612-7.612v-20.906c0-4.204 3.408-7.612 7.612-7.612s7.612 3.407 7.612 7.612v20.906c0 4.204-3.408 7.612-7.612 7.612z"/><path d="m166.551 382.508c-4.204 0-7.612-3.407-7.612-7.612v-20.906c0-4.204 3.408-7.612 7.612-7.612s7.612 3.407 7.612 7.612v20.906c-.001 4.204-3.408 7.612-7.612 7.612z"/><path d="m194.903 382.508c-4.204 0-7.612-3.407-7.612-7.612v-20.906c0-4.204 3.408-7.612 7.612-7.612s7.612 3.407 7.612 7.612v20.906c0 4.204-3.408 7.612-7.612 7.612z"/><path d="m138.199 437.183c-4.204 0-7.612-3.407-7.612-7.612v-20.906c0-4.204 3.408-7.612 7.612-7.612s7.612 3.407 7.612 7.612v20.906c0 4.205-3.408 7.612-7.612 7.612z"/><path d="m166.551 437.183c-4.204 0-7.612-3.407-7.612-7.612v-20.906c0-4.204 3.408-7.612 7.612-7.612s7.612 3.407 7.612 7.612v20.906c-.001 4.205-3.408 7.612-7.612 7.612z"/><path d="m194.903 437.183c-4.204 0-7.612-3.407-7.612-7.612v-20.906c0-4.204 3.408-7.612 7.612-7.612s7.612 3.407 7.612 7.612v20.906c0 4.205-3.408 7.612-7.612 7.612z"/><path d="m81.495 163.805c-4.204 0-7.612-3.408-7.612-7.612v-20.906c0-4.204 3.408-7.612 7.612-7.612s7.612 3.408 7.612 7.612v20.906c0 4.204-3.408 7.612-7.612 7.612z"/><path d="m109.847 163.805c-4.204 0-7.612-3.408-7.612-7.612v-20.906c0-4.204 3.408-7.612 7.612-7.612s7.612 3.408 7.612 7.612v20.906c0 4.204-3.408 7.612-7.612 7.612z"/><path d="m81.495 218.481c-4.204 0-7.612-3.407-7.612-7.612v-20.906c0-4.204 3.408-7.612 7.612-7.612s7.612 3.407 7.612 7.612v20.906c0 4.204-3.408 7.612-7.612 7.612z"/><path d="m109.847 218.481c-4.204 0-7.612-3.407-7.612-7.612v-20.906c0-4.204 3.408-7.612 7.612-7.612s7.612 3.407 7.612 7.612v20.906c0 4.204-3.408 7.612-7.612 7.612z"/><path d="m81.495 273.156c-4.204 0-7.612-3.407-7.612-7.612v-20.906c0-4.204 3.408-7.612 7.612-7.612s7.612 3.407 7.612 7.612v20.906c0 4.205-3.408 7.612-7.612 7.612z"/><path d="m109.847 273.156c-4.204 0-7.612-3.407-7.612-7.612v-20.906c0-4.204 3.408-7.612 7.612-7.612s7.612 3.407 7.612 7.612v20.906c0 4.205-3.408 7.612-7.612 7.612z"/><path d="m81.495 327.831c-4.204 0-7.612-3.407-7.612-7.612v-20.905c0-4.204 3.408-7.612 7.612-7.612s7.612 3.407 7.612 7.612v20.905c0 4.205-3.408 7.612-7.612 7.612z"/><path d="m109.847 327.831c-4.204 0-7.612-3.407-7.612-7.612v-20.905c0-4.204 3.408-7.612 7.612-7.612s7.612 3.407 7.612 7.612v20.905c0 4.205-3.408 7.612-7.612 7.612z"/><path d="m81.495 382.508c-4.204 0-7.612-3.407-7.612-7.612v-20.906c0-4.204 3.408-7.612 7.612-7.612s7.612 3.407 7.612 7.612v20.906c0 4.204-3.408 7.612-7.612 7.612z"/><path d="m109.847 382.508c-4.204 0-7.612-3.407-7.612-7.612v-20.906c0-4.204 3.408-7.612 7.612-7.612s7.612 3.407 7.612 7.612v20.906c0 4.204-3.408 7.612-7.612 7.612z"/><path d="m81.495 437.183c-4.204 0-7.612-3.407-7.612-7.612v-20.906c0-4.204 3.408-7.612 7.612-7.612s7.612 3.407 7.612 7.612v20.906c0 4.205-3.408 7.612-7.612 7.612z"/><path d="m109.847 437.183c-4.204 0-7.612-3.407-7.612-7.612v-20.906c0-4.204 3.408-7.612 7.612-7.612s7.612 3.407 7.612 7.612v20.906c0 4.205-3.408 7.612-7.612 7.612z"/></g><path d="m162.805 459.078h-49.213c-2.069 0-3.746 1.677-3.746 3.746v41.564h56.704v-41.564c.001-2.069-1.676-3.746-3.745-3.746z" fill="#4f67d2"/><path d="m138.199 459.078h-24.606c-2.069 0-3.746 1.677-3.746 3.746v41.564h28.352z" fill="#324ccc"/><path d="m246.499 406.548c0 4.204 3.408 7.612 7.612 7.612h203.979v-15.223h-203.979c-4.204 0-7.612 3.407-7.612 7.611z" fill="#23a8fe"/><path d="m246.499 439.161c0 4.204 3.408 7.612 7.612 7.612h203.979v-15.223h-203.979c-4.204 0-7.612 3.407-7.612 7.611z" fill="#23a8fe"/><path d="m458.09 464.163h-203.979c-4.204 0-7.612 3.407-7.612 7.612s3.408 7.612 7.612 7.612h203.979z" fill="#23a8fe"/><path d="m246.499 373.935c0 4.204 3.408 7.612 7.612 7.612h203.979v-15.223h-203.979c-4.204-.001-7.612 3.406-7.612 7.611z" fill="#23a8fe"/><path d="m246.499 308.708c0 4.204 3.408 7.612 7.612 7.612h203.979v-15.223h-203.979c-4.204 0-7.612 3.407-7.612 7.611z" fill="#23a8fe"/><path d="m246.499 243.482c0 4.204 3.408 7.612 7.612 7.612h203.979v-15.224h-203.979c-4.204 0-7.612 3.408-7.612 7.612z" fill="#23a8fe"/><path d="m246.499 341.322c0 4.204 3.408 7.612 7.612 7.612h203.979v-15.224h-203.979c-4.204 0-7.612 3.408-7.612 7.612z" fill="#23a8fe"/><path d="m246.499 276.095c0 4.204 3.408 7.612 7.612 7.612h203.979v-15.223h-203.979c-4.204 0-7.612 3.407-7.612 7.611z" fill="#23a8fe"/><path d="m470.911 511.999h-429.823c-4.204 0-7.612-3.407-7.612-7.612s3.408-7.612 7.612-7.612h429.823c4.204 0 7.612 3.407 7.612 7.612s-3.408 7.612-7.612 7.612z" fill="#b1dbfc"/></svg>